<?xml version="1.0" standalone="no"?><!DOCTYPE svg PUBLIC "-//W3C//DTD SVG 1.1//EN" "http://www.w3.org/Graphics/SVG/1.1/DTD/svg11.dtd"><svg t="1757670269230" class="icon" viewBox="0 0 1024 1024" version="1.1" xmlns="http://www.w3.org/2000/svg" p-id="6949" xmlns:xlink="http://www.w3.org/1999/xlink" width="200" height="200"><path d="M482.990804 585.965595l58.015322 0 0 58.014298-58.015322 0 0-58.014298Z" fill="#d81e06" p-id="6950"></path><path d="M855.733157 63.83998 168.26582 63.83998c-57.672514 0-104.425328 46.752814-104.425328 104.426351l0 687.46836c0 57.672514 46.752814 104.425328 104.425328 104.425328L855.733157 960.16002c57.672514 0 104.425328-46.752814 104.425328-104.425328L960.158485 168.266331C960.158485 110.592794 913.406694 63.83998 855.733157 63.83998zM570.012763 672.987554 453.984167 672.987554 453.984167 498.94466l116.028597 0L570.012763 672.987554zM570.013787 237.880829l-58.014298 0 0 58.014298 58.014298 0 0 58.014298-58.014298 0 0 58.014298 58.014298 0 0 58.014298-58.015322 0 0-58.014298-58.014298 0 0-58.014298 58.014298 0 0-58.014298-58.014298 0L453.984167 237.880829l58.014298 0 0-58.014298-58.014298 0 0-58.014298 58.015322 0 0 58.014298 58.014298 0L570.013787 237.880829z" fill="#d81e06" p-id="6951"></path></svg>